<mxfile host="Electron" agent="Mozilla/5.0 (Windows NT 10.0; Win64; x64) AppleWebKit/537.36 (KHTML, like Gecko) draw.io/28.0.4 Chrome/138.0.7204.97 Electron/37.2.1 Safari/537.36" version="28.0.4" pages="5">
  <diagram id="gWFYKhBdpNkQKYCAWjzF" name="ms-sql-server">
    <mxGraphModel dx="655" dy="1597" grid="1" gridSize="10" guides="1" tooltips="1" connect="1" arrows="1" fold="1" page="1" pageScale="1" pageWidth="850" pageHeight="1100" math="0" shadow="0">
      <root>
        <mxCell id="0" />
        <mxCell id="1" parent="0" />
        <mxCell id="RPTqT3vRRZMF7wWdadRQ-6" value="" style="edgeStyle=orthogonalEdgeStyle;rounded=0;orthogonalLoop=1;jettySize=auto;html=1;" edge="1" parent="1" source="RPTqT3vRRZMF7wWdadRQ-1" target="RPTqT3vRRZMF7wWdadRQ-5">
          <mxGeometry relative="1" as="geometry" />
        </mxCell>
        <mxCell id="RPTqT3vRRZMF7wWdadRQ-1" value="SQL Server" style="rounded=0;whiteSpace=wrap;html=1;fillColor=#008a00;fontColor=#ffffff;strokeColor=#005700;" vertex="1" parent="1">
          <mxGeometry x="120" y="120" width="120" height="60" as="geometry" />
        </mxCell>
        <mxCell id="RPTqT3vRRZMF7wWdadRQ-3" style="edgeStyle=orthogonalEdgeStyle;rounded=0;orthogonalLoop=1;jettySize=auto;html=1;" edge="1" parent="1">
          <mxGeometry relative="1" as="geometry">
            <mxPoint x="290" y="240" as="targetPoint" />
            <mxPoint x="270" y="240" as="sourcePoint" />
          </mxGeometry>
        </mxCell>
        <mxCell id="RPTqT3vRRZMF7wWdadRQ-4" value="Microsoft : Relational Database Management System&lt;div&gt;Manages Databases&lt;/div&gt;" style="rounded=1;whiteSpace=wrap;html=1;fillColor=#008a00;fontColor=#ffffff;strokeColor=#005700;" vertex="1" parent="1">
          <mxGeometry x="140" y="240" width="500" height="60" as="geometry" />
        </mxCell>
        <mxCell id="RPTqT3vRRZMF7wWdadRQ-9" value="" style="edgeStyle=orthogonalEdgeStyle;rounded=0;orthogonalLoop=1;jettySize=auto;html=1;" edge="1" parent="1" source="RPTqT3vRRZMF7wWdadRQ-5" target="RPTqT3vRRZMF7wWdadRQ-8">
          <mxGeometry relative="1" as="geometry" />
        </mxCell>
        <mxCell id="RPTqT3vRRZMF7wWdadRQ-5" value="SQL Server Database Engine" style="rounded=0;whiteSpace=wrap;html=1;fillColor=#6a00ff;fontColor=#ffffff;strokeColor=#3700CC;" vertex="1" parent="1">
          <mxGeometry x="320" y="120" width="120" height="60" as="geometry" />
        </mxCell>
        <mxCell id="RPTqT3vRRZMF7wWdadRQ-7" value="SSMS (SQL Server Managaement Studio)" style="sketch=0;aspect=fixed;pointerEvents=1;shadow=0;dashed=0;html=1;strokeColor=none;labelPosition=center;verticalLabelPosition=bottom;verticalAlign=top;align=center;fillColor=#00188D;shape=mxgraph.mscae.enterprise.tool;" vertex="1" parent="1">
          <mxGeometry x="560" y="100" width="50" height="45" as="geometry" />
        </mxCell>
        <mxCell id="RPTqT3vRRZMF7wWdadRQ-8" value="Window Service" style="ellipse;whiteSpace=wrap;html=1;fillColor=#6a00ff;strokeColor=#3700CC;fontColor=#ffffff;rounded=0;" vertex="1" parent="1">
          <mxGeometry x="340" y="10" width="80" height="80" as="geometry" />
        </mxCell>
        <mxCell id="RPTqT3vRRZMF7wWdadRQ-11" style="edgeStyle=orthogonalEdgeStyle;rounded=0;orthogonalLoop=1;jettySize=auto;html=1;" edge="1" parent="1" source="RPTqT3vRRZMF7wWdadRQ-10" target="RPTqT3vRRZMF7wWdadRQ-8">
          <mxGeometry relative="1" as="geometry" />
        </mxCell>
        <mxCell id="RPTqT3vRRZMF7wWdadRQ-10" value="MySQL" style="rounded=0;whiteSpace=wrap;html=1;fillColor=#008a00;fontColor=#ffffff;strokeColor=#005700;" vertex="1" parent="1">
          <mxGeometry x="120" y="20" width="120" height="60" as="geometry" />
        </mxCell>
        <mxCell id="RPTqT3vRRZMF7wWdadRQ-12" value="First Principles Approach" style="rounded=0;whiteSpace=wrap;html=1;fillColor=#d80073;fontColor=#ffffff;strokeColor=#A50040;" vertex="1" parent="1">
          <mxGeometry x="210" y="-200" width="120" height="60" as="geometry" />
        </mxCell>
        <mxCell id="RPTqT3vRRZMF7wWdadRQ-13" value="Services" style="ellipse;whiteSpace=wrap;html=1;fillColor=#6a00ff;strokeColor=#3700CC;fontColor=#ffffff;rounded=0;" vertex="1" parent="1">
          <mxGeometry x="630" y="-210" width="80" height="80" as="geometry" />
        </mxCell>
        <mxCell id="RPTqT3vRRZMF7wWdadRQ-14" value="Platform Independent" style="ellipse;whiteSpace=wrap;html=1;fillColor=#1ba1e2;strokeColor=#006EAF;fontColor=#ffffff;rounded=0;" vertex="1" parent="1">
          <mxGeometry x="550" y="-260" width="80" height="80" as="geometry" />
        </mxCell>
        <mxCell id="RPTqT3vRRZMF7wWdadRQ-15" value="Software&amp;nbsp;&lt;div&gt;Independent&lt;/div&gt;" style="ellipse;whiteSpace=wrap;html=1;fillColor=#1ba1e2;strokeColor=#006EAF;fontColor=#ffffff;rounded=0;" vertex="1" parent="1">
          <mxGeometry x="630" y="-120" width="80" height="80" as="geometry" />
        </mxCell>
        <mxCell id="RPTqT3vRRZMF7wWdadRQ-16" value="Hardware Independent" style="ellipse;whiteSpace=wrap;html=1;fillColor=#1ba1e2;strokeColor=#006EAF;fontColor=#ffffff;rounded=0;" vertex="1" parent="1">
          <mxGeometry x="710" y="-250" width="80" height="80" as="geometry" />
        </mxCell>
        <mxCell id="RPTqT3vRRZMF7wWdadRQ-17" value="VSCode" style="ellipse;whiteSpace=wrap;html=1;aspect=fixed;fillColor=#a20025;fontColor=#ffffff;strokeColor=#6F0000;" vertex="1" parent="1">
          <mxGeometry x="590" y="10" width="80" height="80" as="geometry" />
        </mxCell>
        <mxCell id="RPTqT3vRRZMF7wWdadRQ-18" value="Java" style="ellipse;whiteSpace=wrap;html=1;aspect=fixed;fillColor=#a20025;fontColor=#ffffff;strokeColor=#6F0000;" vertex="1" parent="1">
          <mxGeometry x="670" y="65" width="80" height="80" as="geometry" />
        </mxCell>
        <mxCell id="RPTqT3vRRZMF7wWdadRQ-23" style="edgeStyle=orthogonalEdgeStyle;rounded=0;orthogonalLoop=1;jettySize=auto;html=1;" edge="1" parent="1" source="RPTqT3vRRZMF7wWdadRQ-19" target="RPTqT3vRRZMF7wWdadRQ-20">
          <mxGeometry relative="1" as="geometry" />
        </mxCell>
        <mxCell id="RPTqT3vRRZMF7wWdadRQ-19" value="" style="verticalLabelPosition=bottom;html=1;verticalAlign=top;align=center;strokeColor=none;fillColor=#00BEF2;shape=mxgraph.azure.computer;pointerEvents=1;" vertex="1" parent="1">
          <mxGeometry x="290" y="475" width="50" height="45" as="geometry" />
        </mxCell>
        <mxCell id="RPTqT3vRRZMF7wWdadRQ-20" value="LINUX SERVER / OS" style="image;html=1;image=img/lib/clip_art/computers/Server_Rack_128x128.png" vertex="1" parent="1">
          <mxGeometry x="550" y="500" width="80" height="80" as="geometry" />
        </mxCell>
        <mxCell id="RPTqT3vRRZMF7wWdadRQ-24" style="edgeStyle=orthogonalEdgeStyle;rounded=0;orthogonalLoop=1;jettySize=auto;html=1;" edge="1" parent="1" source="RPTqT3vRRZMF7wWdadRQ-21" target="RPTqT3vRRZMF7wWdadRQ-20">
          <mxGeometry relative="1" as="geometry" />
        </mxCell>
        <mxCell id="RPTqT3vRRZMF7wWdadRQ-21" value="" style="verticalLabelPosition=bottom;html=1;verticalAlign=top;align=center;strokeColor=none;fillColor=#00BEF2;shape=mxgraph.azure.computer;pointerEvents=1;" vertex="1" parent="1">
          <mxGeometry x="330" y="560" width="50" height="45" as="geometry" />
        </mxCell>
        <mxCell id="RPTqT3vRRZMF7wWdadRQ-28" style="edgeStyle=orthogonalEdgeStyle;rounded=0;orthogonalLoop=1;jettySize=auto;html=1;" edge="1" parent="1" source="RPTqT3vRRZMF7wWdadRQ-22">
          <mxGeometry relative="1" as="geometry">
            <mxPoint x="580" y="640" as="targetPoint" />
          </mxGeometry>
        </mxCell>
        <mxCell id="RPTqT3vRRZMF7wWdadRQ-22" value="" style="verticalLabelPosition=bottom;html=1;verticalAlign=top;align=center;strokeColor=none;fillColor=#00BEF2;shape=mxgraph.azure.computer;pointerEvents=1;" vertex="1" parent="1">
          <mxGeometry x="365" y="660" width="50" height="45" as="geometry" />
        </mxCell>
        <mxCell id="RPTqT3vRRZMF7wWdadRQ-26" value="IP ADDRESS" style="rounded=0;whiteSpace=wrap;html=1;" vertex="1" parent="1">
          <mxGeometry x="360" y="450" width="120" height="40" as="geometry" />
        </mxCell>
        <mxCell id="RPTqT3vRRZMF7wWdadRQ-29" value="SQL Server Database Engine" style="rounded=0;whiteSpace=wrap;html=1;fillColor=#6a00ff;fontColor=#ffffff;strokeColor=#3700CC;" vertex="1" parent="1">
          <mxGeometry x="640" y="480" width="120" height="60" as="geometry" />
        </mxCell>
        <mxCell id="RPTqT3vRRZMF7wWdadRQ-30" value="ORACLE SERVER" style="rounded=0;whiteSpace=wrap;html=1;fillColor=#6a00ff;fontColor=#ffffff;strokeColor=#3700CC;" vertex="1" parent="1">
          <mxGeometry x="650" y="605" width="120" height="60" as="geometry" />
        </mxCell>
        <mxCell id="RPTqT3vRRZMF7wWdadRQ-33" value="1433" style="rounded=0;whiteSpace=wrap;html=1;" vertex="1" parent="1">
          <mxGeometry x="540" y="435" width="120" height="40" as="geometry" />
        </mxCell>
        <mxCell id="RPTqT3vRRZMF7wWdadRQ-34" value="DOMAIN ADDRESS" style="rounded=0;whiteSpace=wrap;html=1;" vertex="1" parent="1">
          <mxGeometry x="360" y="400" width="120" height="40" as="geometry" />
        </mxCell>
        <mxCell id="RPTqT3vRRZMF7wWdadRQ-36" value="localhost" style="rounded=0;whiteSpace=wrap;html=1;fillColor=#60a917;fontColor=#ffffff;strokeColor=#2D7600;" vertex="1" parent="1">
          <mxGeometry x="510" y="320" width="120" height="40" as="geometry" />
        </mxCell>
        <mxCell id="RPTqT3vRRZMF7wWdadRQ-37" value="127.0.0.1" style="rounded=0;whiteSpace=wrap;html=1;fillColor=#008a00;fontColor=#ffffff;strokeColor=#005700;" vertex="1" parent="1">
          <mxGeometry x="510" y="360" width="120" height="40" as="geometry" />
        </mxCell>
        <mxCell id="RPTqT3vRRZMF7wWdadRQ-38" value="Windows" style="rounded=0;whiteSpace=wrap;html=1;fillColor=#6a00ff;fontColor=#ffffff;strokeColor=#3700CC;" vertex="1" parent="1">
          <mxGeometry x="800" y="430" width="120" height="60" as="geometry" />
        </mxCell>
        <mxCell id="RPTqT3vRRZMF7wWdadRQ-39" value="SQL Server Authentication" style="rounded=0;whiteSpace=wrap;html=1;fillColor=#6a00ff;fontColor=#ffffff;strokeColor=#3700CC;" vertex="1" parent="1">
          <mxGeometry x="800" y="510" width="120" height="60" as="geometry" />
        </mxCell>
        <mxCell id="RPTqT3vRRZMF7wWdadRQ-40" value="sa" style="rounded=0;whiteSpace=wrap;html=1;fillColor=#6a00ff;fontColor=#ffffff;strokeColor=#3700CC;" vertex="1" parent="1">
          <mxGeometry x="930" y="460" width="120" height="60" as="geometry" />
        </mxCell>
        <mxCell id="RPTqT3vRRZMF7wWdadRQ-41" value="sqlserver" style="rounded=0;whiteSpace=wrap;html=1;fillColor=#6a00ff;fontColor=#ffffff;strokeColor=#3700CC;" vertex="1" parent="1">
          <mxGeometry x="930" y="530" width="120" height="60" as="geometry" />
        </mxCell>
        <mxCell id="RPTqT3vRRZMF7wWdadRQ-43" style="edgeStyle=orthogonalEdgeStyle;rounded=0;orthogonalLoop=1;jettySize=auto;html=1;entryX=0.25;entryY=1;entryDx=0;entryDy=0;" edge="1" parent="1" source="RPTqT3vRRZMF7wWdadRQ-42" target="RPTqT3vRRZMF7wWdadRQ-30">
          <mxGeometry relative="1" as="geometry" />
        </mxCell>
        <mxCell id="RPTqT3vRRZMF7wWdadRQ-42" value="" style="html=1;verticalLabelPosition=bottom;align=center;labelBackgroundColor=#ffffff;verticalAlign=top;strokeWidth=2;strokeColor=#A50040;shadow=0;dashed=0;shape=mxgraph.ios7.icons.cup;fillColor=#d80073;fontColor=#ffffff;" vertex="1" parent="1">
          <mxGeometry x="425" y="720" width="130" height="160" as="geometry" />
        </mxCell>
        <mxCell id="RPTqT3vRRZMF7wWdadRQ-44" style="edgeStyle=orthogonalEdgeStyle;rounded=0;orthogonalLoop=1;jettySize=auto;html=1;entryX=0.565;entryY=0.948;entryDx=0;entryDy=0;entryPerimeter=0;" edge="1" parent="1" source="RPTqT3vRRZMF7wWdadRQ-42" target="RPTqT3vRRZMF7wWdadRQ-29">
          <mxGeometry relative="1" as="geometry" />
        </mxCell>
        <mxCell id="RPTqT3vRRZMF7wWdadRQ-45" value="Driver for SQL Server" style="rounded=0;whiteSpace=wrap;html=1;fillColor=#d80073;fontColor=#ffffff;strokeColor=#A50040;" vertex="1" parent="1">
          <mxGeometry x="570" y="820" width="120" height="40" as="geometry" />
        </mxCell>
        <mxCell id="RPTqT3vRRZMF7wWdadRQ-46" value="Driver for Oracle" style="rounded=0;whiteSpace=wrap;html=1;fillColor=#d80073;fontColor=#ffffff;strokeColor=#A50040;" vertex="1" parent="1">
          <mxGeometry x="570" y="870" width="120" height="40" as="geometry" />
        </mxCell>
        <mxCell id="RPTqT3vRRZMF7wWdadRQ-47" value="routine for Java" style="rounded=0;whiteSpace=wrap;html=1;fillColor=#008a00;fontColor=#ffffff;strokeColor=#005700;" vertex="1" parent="1">
          <mxGeometry x="690" y="410" width="120" height="40" as="geometry" />
        </mxCell>
        <mxCell id="RPTqT3vRRZMF7wWdadRQ-49" style="edgeStyle=orthogonalEdgeStyle;rounded=0;orthogonalLoop=1;jettySize=auto;html=1;entryX=0.81;entryY=1.031;entryDx=0;entryDy=0;entryPerimeter=0;" edge="1" parent="1" source="RPTqT3vRRZMF7wWdadRQ-48" target="RPTqT3vRRZMF7wWdadRQ-29">
          <mxGeometry relative="1" as="geometry">
            <mxPoint x="730" y="670" as="targetPoint" />
          </mxGeometry>
        </mxCell>
        <mxCell id="RPTqT3vRRZMF7wWdadRQ-48" value="C#" style="image;aspect=fixed;html=1;points=[];align=center;fontSize=12;image=img/lib/azure2/other/Azure_Chaos_Studio.svg;" vertex="1" parent="1">
          <mxGeometry x="442" y="980" width="68" height="68" as="geometry" />
        </mxCell>
        <mxCell id="RPTqT3vRRZMF7wWdadRQ-50" value="routing for C#" style="rounded=0;whiteSpace=wrap;html=1;fillColor=#008a00;fontColor=#ffffff;strokeColor=#005700;" vertex="1" parent="1">
          <mxGeometry x="690" y="450" width="120" height="40" as="geometry" />
        </mxCell>
      </root>
    </mxGraphModel>
  </diagram>
  <diagram name="Page-1" id="qZHDmL-Z_HDxiVCeZCYQ">
    <mxGraphModel dx="786" dy="596" grid="1" gridSize="10" guides="1" tooltips="1" connect="1" arrows="1" fold="1" page="1" pageScale="1" pageWidth="850" pageHeight="1100" math="0" shadow="0">
      <root>
        <mxCell id="0" />
        <mxCell id="1" parent="0" />
        <mxCell id="oS1bjJ_bQjN-WQIwXAlt-2" value="" style="shape=image;verticalLabelPosition=bottom;labelBackgroundColor=default;verticalAlign=top;aspect=fixed;imageAspect=0;image=data:image/jpeg,/9j/4AAQSkZJRgABAQAAAQABAAD/2wCEAAkGBxQSEhUTExIWFhUXGBcYGBgYFxoYFxgeGh0YGhgaGxgbHSggGBolHRgYITEhJSkrLi4uFyAzODMtNygtLisBCgoKDg0OGxAQGzUlICUtLTUtLS0rNy0tLy0tLy0tLS0tLS0uLS0tLy8tLS0tLS0tLS0tLS0tLS0tLS0tLS0tLf/AABEIAKIBNwMBIgACEQEDEQH/xAAcAAABBQEBAQAAAAAAAAAAAAAAAwQFBgcCAQj/xABLEAABAgMFBAUIBwUGBQUAAAABAhEAAyEEEjFBUQUTImEGcYGRoRUyQlJikrHRBxYjU8HS8BRUcqLhJDNDgsLxNERjc7IXJYPT4v/EABkBAQEBAQEBAAAAAAAAAAAAAAABAgMEBf/EADERAAIBAgQEBQMEAgMAAAAAAAABAgMREhMhMQRBUZEUYaHR8FKBsTJxweEi8SMzQv/aAAwDAQACEQMRAD8A3GOSsR5NUwiD2jtG7AE3vhBvhGQ7W6V2hE1YE0hN4hICZdBUjFOkIp6VWsgHfGvsy/yxnEjzviYrkzZN8IN8Ix1HSy1AuqYpQ0SmW/inCPEdKbYWO9I/yy/ywxIeIja9mbHvhBvhGODpRa/vv5Uflg+tNr++/lR+WGJE8THozY98IN8IxxXS+10SFqvZquy7uGQuvp+qR0eldq++/kR+WGJGnxETYd8IN8Ixaz9M7Wo/3tGfzZf5YcHpZaxXeOMxdQ56jdpBysRcTB9TYd8IN8Ix0dMLWoniujJ0oJ+HXHv1ttf3v8iPywxoviImw70Qb0Rjh6X2r73+VH5YSV05tSQeIqLcJCUMOsM57P8AZjRPEw5m0b0Qb0RiZ6c2v1/5Uflg+vVr9f8AlR+WGJHPx1Lz7G2b4Qb0RiX16tmSx7qPl8of2TpTbJixLTMdZSCwlozF7EkA4iI5pbmo8XCTskzXt6IN8Ix639K7dJYKUxwZUtKTqDnSGX18tnrp91Py+cFNPYkuMpxdpJ9jbt8IN6IxH6+2vNQ91PyjtPT21UdQbPhS/ZSkXEiLjqTNr3og3ojFV/SDaSeGg0KUv3gR59fbV6w91PyhiRXxtJO1za96IN6IxUdPbV6w91PyjofSBaQC9TkwSw0eleyGJFXGUnzNo3og3ojFh09tXrD3U/KEz9IFrdgpOlUpgpXJ42l5m270Qb0RjCOnlqzUn3RhnHaunlpNUOAGe8lL8yGywhiRVxdNq5sm9Ee70RjX13teox9Ud8d/XW16px9Ud8MSL4uHn2Ni3og3gjH/AK8WkOFVPo3UJb/Np2f7n1ztfrJ90QxI0+IgbCFiOoxxXTy1oDlSPcHzjQ+hG112qyibMa8VKFAwYYUip3NQrRm7IsEEEEU6iFqNIonSWcQ8Xu1CkUPpNKxgDPtql1PqcezshaTbAmWEC66gH1oKAeMeWiYErY40/CL39F0hG9tKmBUi4gKaoDrdtHYd0YtfQ8NOOKTt1ZnU60MGA66UjqTaQQAWpi/6aN6tG1ZSFFClsoXaMfSdsByPVTUQmduSAATMYKTeDpVg93ShejY0OkawHbw8bmLT7QJjFhkC2bZ9cIW7aKVEF0AJDAPgA3fG6K2tJAB3gY3g9W4SEqyoxI748k7VkrLJmJJphzN0eNImBlyFzZ8+q2km87husPD6y7VQl3UgghiCoVcVzxjdRtGSVBN4OTdAY4upOmqFd0OJoSAVKugAOSWAAFSSdIOJFw6XM+eNl25MpRUSkOlgVGgJbU4t+tPJm1ED0kE1biDdZj6AFskEPeQ2NQ3rF68kL90xwbTZ6g7sEO73aMSK6VEVxuSPDJK1z59kbWSSxWnEYkCnXr+uUSI2gmYkJCkqKcCCCWORY8hG1m12UkpaWSLtClLm9dYh8RxCOJC7LNuBMlChNSVA7tN0gZGlDjTkYjgXw6StcxC27TF0SwUi7qQ74uXPPlj2xFz7eMlD+vy7I86RyEjaE+X6CZ60APglBKQH6hENMlG8QAc2plESI+EUlqyfs20AllhSQQzVD5u4/XyVnzwtRWA16tMHNS3J6xV4nLA24Ssq4rxTd5DA9WURo8vE8PgheIsqJFK50svK3gvS0JJQDUXU0cdUc7qRR56g/wD0/wD9Q6kWwJQEi1KAbAS3A1Y5jHvjk2eeFO2rfZr3G20rRMmICpr3nABKbpICWrSp5mI1miWtsyXMIvWlSmwdDAA44cwIZ2qXLCeCYVHmm6G74RdtDFaN25Xv91f8idntu6JWwJYgPgCaP3Ew1m25IreSSeYx1LYCPNsBKZSbqnvgFQ0Y4HTB8vnFrk/ZpUAXJU+YYM3VnHVI9nD8Jih/kyRlWtLsVDDkB35Q8O0QuWJfCSguCMWOILY1aK0pJGINcOcO9kJUqYEJqVDDVqxWjVXg1Gm8L/snJ20hcTL4U3XNSHJOZc/KGK7cKsRTx6uUMLTxT2VUOkHKgAHwEN5sshRABxLUygkahwcZQTb6Fhsu0koKVhSX0LdoIyj2VbUpnb0JBS6lBJNMyM8HP6zrIMSQviTeYsRdejUangIqVjNThlC1nz+Mkp9uSXUSCTkG55DDKE5VtS9VDBg3wiGEsXL1XvN2NpCREMKOngo3vctqLYlUvd0LKcEM/MHUQ4m25ASE8IIcklnJPi1BFX2KCZqUpxNG1zbvAhTaICrQyjThScqCM21MxoWqYfIlJtvSxCSM35+MPbJtFAUlQKSAPNLN1F4p0xFSADm3VCZjWFHRcIk7pl12hMBSVAEAkED/AGjWPos/4FH8SvwjIbGpO4llRBCgaE4XW+f6eNh+jFv2JDYXpje9EiZoaTs+hboIII2ewTmikVbb9nBBi0zjSKrt+cwMAZztmQHP6bmOcXP6JpbCf/8AF8FxRtorvKmOpQIUm6kJBBFbxvFVMsqc3pfPosSQbUk4pMseCokZXZ51d1E7fNSQ6Q2iSZ5SuZPCnQAlAQE0KS19TUUZiXDvwsOaTWaUiWL81KkoCUTbqAQxmTFXaXXZJcAYM3KQ2vYkGe+4mKUrdkrSpQFCaUDBrofrhiiQgslVmtASwDGZMIxo9Kl5qi59UOzU6I9B7OEhXEZs8qeaHCQ4ClJv0IYAXmLY3XLlIIRsSLMVgImz1VSWCQ6gVKwKBeA4UlwxZAbEw8tezZMtQCbPNJOJStbteAbqNzxqzvHFl2egKvIkTUqDEfaLS1UmnDgSsgg5DrgBCwos2+RdXOvCYlnlpHETMWAS14eexPM+sp5xe3pCiJZKnWrd1QWclSWLhsU+I1hlsbZkpallUpZDCsw3gqipbh0gg3Q2tcBEhK2BJSsL4ioKCgSp2IJL1zLseVIjBz9XZTMLyRV7pAd74wZhSYvADzoUnbDlKVeIqyhgk+cVEu6eIcRoXGFKRITnum615iz4Pk/J4iAi2+tJ66v6PssfS74gFEbDlIu8SmCkqAKg14MxwxZLNgzsId2DdoQEImBQQyfOBI0SW7AM4UtoSUKCw6SGIxd8gMz1RVujFms6LRwpQJolApuIQkJSthdvIQAV/Zl3JLYUeG4MZ2+P/dLS37xP19ZelSOWcNFpdaFA8NwjzkvUKbwhXpKsDaNqKiw/aZ7s7+evQvDb9ul3ql+elFZEcx3xzKmRTRL7OSRKvtwgqD0xFW68O+Iyz3CeNRAY4Vrl2RJ2Ceo2e5kFLOeYFXZsaN2xWeTjIqUNRFayoucf1gI6A688+R06hCTR2jDv+B/WHaIqPny2HchVD/ER2U+cKPCNnDg19Ivyw69IcTLOtIcoUBqQQO+MNanllGTbshltMcHU0KSE/YgZlC8Tz50Fch+MIbRPB8eVaAUrRjn+EcybbLEsC9Wrg1euGYD9QipaH2uBVqWolb0MEDMJY1BwJ0jzY98Tk7t77G6wc4ZDMwW+0oWxSQKHTU8oW2ZaEy58taC7JdRIdixdgHcf1i8j0Vf0vWwlLT/aABrkTpqKkfGHK0OtJFE3TmkFjeaGalhM510rxVrhyIMOvKEt3JB56edkQdR3wFL/AK4/siIAiYUpZsiEkcAUpQOpJY1zGFMu0RFSFIL3lNwlmq5yB0ESe/UbKlGQKjhqzF21BpyMGc6z215/yjqxD7Mc77VpgXxppDO0oZKAcReo4LV5QpZrSgS2vMpzqRn1jPSOLdaEqu3aNecdZpkIHoO9jKUJySh71WYOXbIMXPKF2/tVCSXNQ+LF8I52TMSidLWgksLynFARiwGIArCa5gE68twM2cHA6MYHnT/5d+XsOpieMKB4d2Q94P6TeEQsS6rbLc1dxQ6UVRiNSO+IyQlJvXiRwm6wdzkDoOcVHdmi/RnIQqdLMwD+7O7vYFQIdnxUA7DJzG3WZDCPnvZ6fsZG8LSnLsAVAUvO9G83mK8o1/6MVk2CWSSeKZUs7Xy2BI7oietjz0tNP9lsgggjR3OJopFX29IcGLRNNIqu37SwMAZztmzhz8dOcW36Klo+1Soi+q6oJOJxcjWpimbRnlU1QJpl8Y4UiWZZSsVxSRXvjOOzPE6izMVrW9TarXs+Ytd5NoUhPCyQKBrz51e9p6IhPyXN/eV4KGeYYHzsj8NXJwadYVE8DsMeLtOJ6o8TY5lwLdd1ne9jU6HGmEaUtDtneTN6m7MnFTi1KAd2CeYLPe0DdtGFIf2KSpCEpUsrUMVGj1/Q7I+frdZFC6ELWOGqisuTR2CVFhh4x3bLIu6Fy1zWbiZZYGjsScHyycQui52trG1zNkzt7MmItRSFmiSm8E0ZgCpstI6k7MnpQEm1EkE8VwYXUgDNw4Jc1N4xhQROQpN6bMqafakv3KiQTMYEqmTmYsAtTktQYwxWI+ISdmjZZmzZ99Sk2opSSTdug4kNVTswcMGgVYLTlaqD2E3jyJZm7IxGzCaD9rPmgKB82eSQaMRdWc9WcPHibPamJRPnqAeu/WBrWtKVhiRc7W1jdbfZrQuz3Jc9Mueyftd2FgEEX2QWDEOOTxHbJ2Zb0TUqn25E6UHdAs6UE0LcQNGLHsjDLTabVLShRtM6uDWhSscyErNOfVDm1GeZCQbRPUVklbzyQQ1EBF8lsXcDJ4uhM/fQ42/uZs+0lKkkmdPUDxEKBWTVhzUQQ4YViIFiSpXmgN52OuBfnD39lRu0C7dU7KJa6QMDjiH0h4uxLls6WSdSHJpVtajvjLaR4Jylq4+n8jSTYZVXZIYesScWplU1hS2zEJllCGCHKhjiRUBwKDXGFEBJVUm6POADnuhDbFnUVrWEXUJJSEuHDU813dmJ78KxlanKDnO9vuRt6Open6wP9I8kSitV1OPW3iaCObZLVKVdXnoQrxBI7I2bcW1cTvm+SD/UQtatsziADMKkuAxbNQJqBygXZyMQ3CFVIFFAEGp0UD36FnQ2PKVdCZpUXTwnhBN4MHalHiM9FBxUZRlz/s7FvSsJTMSLqEECpqSeQLM5ajUrjDG1SUB7qQUl2VxDNw4NHoXandEtOsiELdcm6koYoCitXJQLioUBSlH1YQ4SCeFy5pTiOmGcFY5SvFtcxOzyE0AQO28+eSdHMStmtUqSQtAClo/iYkhOqQyRXN64QlM2NNoGSrPhUlQZwKsS1TQ8joY8mSk7pKUpZbutSilgAGA84skBySQMOUNGLyj+rflcXmSZK5ZU4vXSXIUzsHBAFGq1SGxiHmyUu5QARjjqHxJIZzEparMAlCAkiaAb10hSSHo9TxVGVQoGGdvshlAFd0hXqLSrQg0ehahzYwQwyV18+4pYpUp70xICaMBeL1NAahvOry1iXQuUQmXTdJJUDWpUzjBwKFqP3QxRsoy0pmTH3dOFJClKeoGIxwh1ISJc28pKTKU5upUFcJoMDpgXqQYjsSaqJX736EXbpKAeFIUnneBdi4OAeqsPV64bIQAwKXKhzoKvhyiat2yiQZiWCS2JGdHLGnPtrDNWz1JN1SsQ/CsECrB2wfGKmitTSxPREjs4yUKCkNvEV9IAmlKgMBWprSE7QZSgQ4vcT0UxL1FBTMguRrAJCQi6kcavPUaADR3pqSRrHFrswEtKbv2oxKSCkg1Dl6K7KiCtcK9m1shgZSSzpAIJerNXAgl4f7Ps0sqClpDPQMurkPWobGuNIb2SyLCVOUpuuTeUA4bGvZXsia2dYxJUDNHnY3VAu1W7jjCTKoy3to+xPdB7BKXbGUEquoeWCAxLhyxFSBh1mNhsksJDAADQBowG0KDlQoQ6gBlo0a79HE5SrDLKiSb0ypLmi1NUxIu56OGqa4LfctEEEEaPYI2nCKN0lesXucHEVva9gvQBly7AVKJKiAXwZ+1wYNibPmT76UqQN2QC7h3CiCGf1fGLZN2KY4smxFSn3fDeZ2zZ2+J744uNSzWhyVCne7RA/VCef8WXU+01Sger7XhHiOh81gN6jKrqdiEcvb8DFn/YZ33iv035R3R4NnzfvFd/V+Ud0Zw1eqOmVS6PuVtHROck3t7LwNGVoS2Hsx5aeh81RJM1GdOJqXx/oPeIsp2dN+8V39Y/E98B2fN9dXf1/mPfDDV6oZVJ8n3K39TZzj7aW4NKKbEDTnHUzorNWADNlh2eis7n/wBg7ucWLyfN+8V3nkfwEA2dN9dWWZyb8o7oYavVEdGi90+5W09E5o4jOQaUBB0vN4RxbOh8xTkzkUvMwOW8/J4iLOdmzcL6u86N8I8Oy5nrr945u/8A5K74YavVfPsHRot3s+79yrWjoPMUwNoTRQyLUJT846T0Qm3h9ulqBrpz3YHX5/hFn8mTPvF+8dX+MA2VM9dfvHl+Ud0MNbqvn2LlUej7v3K2norMZ96jJXmmlAr9dUJHoepJJE1IIvVY1beNTAeZ4xafJUz11+8er4R4dkzPXV7x5/mPfEwVuqMeG4f6X3fuVqf0NWpxvkirFkmtSnXCkJDobMULptLhRDuCSXMs4vqt+yLZ5Kmeuv3j16x4Njr9dfvK5c/ZHdBQrdUVUKC2T7v3KfJ6DLBvC0JFHHCXDpD5+00eT+gaiSV2gKIf0TgN4QMfY8YuI2Ov11++rq15CFJexlHFa/fVz58z3mLhrdS5FG1rPu/czraPRpUibLQqbvErC3FR5hCQMajhTTJhDnZmwjOWtAXcuhBwJcLVdbHKL/N6PhRCi5IdiSSQ9SznMw38hFJJS4JZyCQS1RhpGsNTDa+ph8PRb1Wn7lUl9CizCekCnoHMI5+34RzO6EKIf9oFK0RyUdfZ8Ytw2Ov11+8rlz5DugOxln01++r58z3xnBV6jw3D74fV+5U5vQtb/wDFGj5FyxWfW/6Y/Qjs9ClBki0gMcblaKLelTAGLSdiL9dfvq58+Z7zHvkVfrr99Xzhgq/UadCg9XH1fuVOX0KVec2l3AT5mRKH9L2/COFdB1LAv2m9mHQ7Pu/a9vwi3jYq/XX76uXPkO4R4Nir9dfvK5c+Q7oYKv1FyaPT1fuVI9BjdYzxUBzcLswJ9Lk0KTOhq3c2p2vYo/jPrewItXkVfrK95XzgOxFH0le8rnz5nvMMFX6iZFC1sPq/cqszoUbxP7Rg4HBWl/E3vYEeHoSr95c1ANzmX9LlFr8hq9Zfvq58+Z7zB5EV6y/eV84YKv1egVCglbD6v3Kwehyiw/aWqHIlsT5vtUxgldD1XgTaXokMUPmj2vb8Is/kRXrL95XzgGxFesr3jy58h3QwVfq9AqFBK2H1fuVkdEVEk/tLXmwQQKiWPW0V4RxI6GkMRaGJZzu9bpHpe34RahsRXrK948ufIdwjpGwz6yvePLnyHdFwVfq9A6NF/wDn1fuQHRHYdlmJtBti1AoKkSxeVLcB3Wlm3ij6tQKUrF8+jmQUWKWklyCvxUTDbZ3R+WMUA9dYtFgsyZaQlKQkaCg5xuKnfURpU4fpQ6gggjobOVmIu2zgIkbQaRTekFrKXgBhtDpaiXMUjdKVdLOClj3w2+uqPuF+8n5xStpTSq0E6tnyVl2QsbgQ5PESwH4mMNs8DrVMTSZc5fTFCv8ABVrVSR+McJ6ayz/gL70xQ5k8GhSD2g98LypocAinIjDlC7LnTt5/PIu310R9wvvT848HTRH3C/eTFRmJAWwIuP5z5Yvhi2UI2icEktgNSHiYmM2p1/Bdl9MkBvslF60Uk9+kJzOm8tIcyFt/EmKOicKkJAOdQDCk9SFSVF2WCnh1D5MK5QuyurN7P8exdk9NZZ/wV96fnHcvpig/4KhiaqQMO2KNZlITJvFXEVFgNKVP+8JTbQk0KQX1IPfBuQVWaer+di9jptLOElfen5wHpsj7hfen5xSZc4OA1ORGHKFp4ZbCqXHE+RzNMoYmTNqdS3/XdH3C+9Pzjqb00QlvsVF8GUh+56RRrXOCVEJ80YEqAf8ATQ3lTw94IDtUuHb5QxSGdNXu/nYv315R+7zO9Hzg+vSP3eZ3o+cU2QsKSosygHSHDK1GFCzwhvlO1yv8QiYmZdWouf49i8/XpH7vM70fOPPr6j93md6fnFH3qvu/5hHJmq+7/mEMTMuvU6/Oxez9IEv7iZ3p+cJL+kKUP8CZ3p+cUVU1X3f8w+UJLJ+7/mi4mc5cTWWz9C+/+okr7iZ3p+cObP05lrBIkqo+KkDDrMZ3NlJEsKY3yTwhQYAYElsTXPSGSlDBSQf8wPb/AFjV2ZjxVdP/AC1XkaUfpClfcTO9Pzg/9QpX3EzvT84z+SsOApFKOyg7a4Q7Ukb26B9m/nv6OL4YtlrEuy+JrvmXdPT6Wf8Al5nen5wvP6by0gHdKL4AKQT2h6frQxntonhKiEjhyJUATzaEZc8EuEB2xvAU+ULs6LiaiTTfzsaEen0sY2eZ3p+cCen8s1EiZ3p+cUdK0LlrcssBwHoRR8Bj+McWC4JS1KVVwEgZ4uTywz1i3Yz6vX8GgSOnCFFtyofxKSB3vHszpslKb37OspJIcKQRTt6+4xnE20jApBfK8D8Ie2LbMyWgBATdGFUu1KDwhqaXEytZt3/b+LF0+v8AL/d5nen5x0Onsv7iZ3p+cVG07SWFC4xCg9brpKnvAltSa9Ud23aigo3CCKOTcDkBWAIFKnw5Q1GfP6vRFvX05lhL7o9V5N7ujwdPJf3C+9MUFVv3jAgGpUPNFTQsQOWEL2RSFFSVm6pjdIIIeuLP/tWF2HxE3+l/Oxf5X0hyx/y8z3kxedk2wTpMuaAQFpCgDiHrHzwo/aj9ZCN56Gn+xWf/ALSPhFR24arKbeImoIIIp6xG1YRQuk4xi/zw4iodIbM4MAZhPkvMfOnw/rEDty2rRNCUKbhDuBiSRmKZDsizbUkFCipJLgg8qfDCKdtetoDlySCSaPU40Yd3ZGbanlpwtUeIbzbbNSogqqCxoMuyPEbVmgUX4D5QtOsyd4kEecVO2dThWIwiKenBHoWqTbCqylZPEEqrTEOxbDFohlW6cpN4ro7YDHHTlD6zzP7CQ2anPLTreulIa2OSFSq+so4180to2HPszyjlShHX9xv+3zKcWHIfKHFl2gtawFqcGmA6w9Kw1mSwEIVmbz9hpCmyAN/LcOL1erONG5wjheg8t1rWmYEoJDirgYknBx1eMM5lrmJUQVVBY4ZUh1tBlWqgpeDZUBpiC1NRBOsid6kH0iq9XmedIghCOFaDSXtKanBfgPlE9ZbWVWZS1OSAqtMQ7fhFYMTVlmNY1C7UlXFkAxcYu5Nf8vU8kjFWEdP3GK7dNWkqKqBnwGOFM4S/b5nrQ52bZwpBd2Kg9Ww7NSM8+UNDKG7Cs75HYzxTrgj0H2z9qzN4lKlcJLMwGVPwiyenh6P4xTbCPtEfxCLfJdRVMUXKv1hlhGZI8nERinoKx4Y9aGky2XVFJSaMzf164wlc8g4McsTQBzyqT2ZwyO0k+qrw+cdyrW/ElwU4PqxbA1EXCzPPXYh9p2tYm3EH1RliQM9IYKtS0qIJqCXzqM3/ABhzNl/2ljU3gTrg5yPwj2bZBvUpL8V69XNzn2Rs+rTpwwp2GyNoTBQK/X6+MTki1lUhSjiEqrzYse+Ky0TsieBZCkAkueLK62GLu9cMu+s416UdLWWvxDFVqmrQSVcIIBwGOFOzwEIi2LpxYfrGHmzpIUgvherVsB8+eeFIZqlDdhWZUR4RT0ZUOi7C0i3rKgFKJGGA0plhhTSHG0LUUFN0sak4Ecsc8YYWIfaI/iGPXD7b10zuAcNAHcd7inbA4ypxzFohvaLRMSohRc0541/GOU7QmB2Uz484d7Qs4vJPrKAxyYNp8BEdaEALUBgCQO+B2yodET+x7XeSStyxL9XKIhFunKBAXQByKCmHbi3aYkNizQJM0M5OB9XUmulKa6PEfsqTeC+oDFqE1y0HLDnEOFGlDHLb2ERbl+tTqELytqTCtN5RIvB8HNa1hKZZ0tMPqqAFeZ78IbIFR1iLudnThbZdi77kOFEVYF/h2RuHQ7/g7P8A9pHwjLOhWwDbSpc6YoITdQAhgSQHxINACK4l+UbFsuyCVKRLS91CQkPUsKBzBJo8/DQs3JbDuCCCKes4mmkVnb00MYss7CKp0glljAGcbTWpal8PAFhDuMSCRm+TYZxTttJa0pap4aHVzjFr2pIuLKxWt4ggVbsd8e+Inaext884niLktQYkkgVLO+pjGqep5rqM7u9yLbiagI1ALuTgVViJlSVKLJBJqWGgxiSOzxQ3y/WfkM3zhWz7JSVMF15EjJzkKM/dGrWOniIM9s0xP7GpPpEqJ0b5u3f1wlYSRKdqOps3cEFwaaZv3xNy9loTLMpwSSp1NglnKn7MecRU3ZFw3d5kTi2XJxE3JCoo7jPaCWCahnXgABiNINnyrs2UVghJZQOo1EKjZ2qi3N2qa4CJTZ+w3uTCp0gjGtHLsNBWD0Eq0ZKyI+3rBtQKA4JBS7jMs7VwbnC7OtqAg53SalWBNe+He0tjX/tUlgNKcIJZX9YiV2VVCJpJ61OH/q8RK5VWjFWZHy5RUWSCTUsK4RL2GYj9lWH4yVFuQBeuR83npnHNl2W6rqV1NOFwcK5YY90SqdkplS1S1KF4kga3WN5Q6mbtHKLIzOopbEJstTIJagU7u2QDMRdzxeOLelpaRRrw81m80dsLTNmqlkp3pTV6Xg4dnYdSq8oSkbNWo3b7gVzI0+ELczefDYa2WUQtBUCEqNDkWxYmhi4icguUHgy6mBwNYirLsBZCVEkhOAU93VQSPGmkPbUtKHCAkguEl2owq+BjMtTz13i1Xzcbr2kX4QGycF/jDdRvG8c+VKEd/j1QkY7Rh3PhqP1WNWtseVIRKXhzZVcKnIFRj2wg8O9mISpwogJfiJLMGVV4PYmG+hErP9pcAKq+JANNQHh0kOoAM6aOSl/Sz+cd23Y8wnepN0ah+GgbqcEd8R1oss0EfaasSTqoa6V/zRLXPfTrwjFRb2GaJZLsCWDnkNYl5E1AshD/AGhJp7I54O7c66QhZtkrUWSpyR6IPO92AAHtiXTsUCXuyrjKiMaNjfZ8KYxWSpVjLREVs5RCHagUTjjwszEXfF6Qnb0MhNRjkEtgNKwrM2bMlEpVMuGpbiGjHtBMIIsZNDMAAbVtHHY/dFsdPE0+pxY5TLllQZKi4Oo/WsPNszEqnpMuqSRdxFHpjX8YWsGxibqyoFL864u3UxwhztTY98lctYKE0BFXA9KmVDUROZydVOaly/36CU0OpiwIN6rGpKaAqY98Q02UpUxSUgklRoBU1OQ/CHcyyrod6VB9TRgk58/hHcnZyiRcmC+TRrzuWoDqXPdGrWOniafUX2OpAkzQrzzRP4vpR8dNYY7IwXSnCSXZmJODMXwq0T9k2Pu0KSsgrN26PWJxHNvwMRytiGUogzSkHAgniFa0BerRncxCrGMm3s/73Glt/u1GlSCWZ8VYtnDCTLLpLcN4B8okRs8lwZlC5xJBzGWvxh5Y9gXjeSsFIPeaUDtWukW1jT4iDWhbdibanWYrNmS6boUtKkgpcMkqoUkF35EDkI2jY9oMyRKmKZ1oSotg5AJaMg6M9HDb1LWtdxCWl8KQVKYAtWgA4da6NGw7Ms26lIlgkhCUpc4lgzmJG/MtLqtvT7LkOoIII0djiYaRWdvTAxix2k0ikdJZxDwBRtqz7y1JajkdcJBCrl5KiwLEAkM+ccTZS1KUUpBq9Sz8hQvDeXfWHRKWoYEhJNaUoDWo745t8z50sblqiOnySk8uWvfjHeznvhKcVEDE15ULHPviRmWeaP8ABW+PmKoOZIYnl3wmpE4qdVnXSnmMzO5YJD4HujSnoZVN7/wK26zETKTCFOEFTmpNMcaGjxF2oLSShbkpwcktnQE9WWcSM5MwYSZhGtw0x9EjkcdI5TKXeN+Qque7oMQ1A2R5xFKyNYLxYynmgoKJBOpyxhzZlzAgzFKVu3CWcm8cgHOAqccucKGyr3n92pmaqS3wjxZW5IkkjUywo9bKB1DdcFJbCNN31EZgmFO9QpRSFNdci6aaFgC4w1iOUggnLJv94npYN0G6oUFGPLvxHeIZTwspUBJPEDjLfH2iHGIwwyiqa2Jlt+Q0scxV4BJ84gG6S55NmMYcW++bQEGYxCglwTwk83xqzwwRYZgxlqpjQ5VLNXIxJLWSayaZtLCTV60FcDQ6RqTRIRbi7jWdImXjKW7pfEkgPUqHI1670PZEsJDDvj2YCkKKZZJILUKakEJOFWOXKGSZ00JU8tRJDJIHm1SSWavC4bnHNvERxZLhaghSipV1IYn4J7Xw5xC26dfIZ2ELzZijLKd06sSSnF24nFXwPaBhDFctTElK2HFUZAdfLuipJGpR2OcITUsu2Qq+b/hHcwKuJmXRdJA1LVfvqIeT1ky7gkC9QeYL1G9J3xf4c40ZUbjIwrZjwnrH4wpYF3QSZN5285F5sRgTSpT1w3O8JLIupfSmTZcx3xDnVg3DTdkqtExKErCyUKBSGJYapIyw8IZLALginw6jHtmUsoKFIU7hQNWaoIZtc+UeiWdD+v8AaJseScZJpL51EZAmJNyW95TDhJ4hXLT4NDhKpu/3d8GY928/pMzXn14XgSk4sS3LCPbrB7uelT+nHfGsSNqd7XiermFX2cwkLS+OXMcoZTJF2tCM2/WEO1Wgm6DKYiriWApmpxYq5k440gQSPRVR3DF83+BPZC9jpOElNJaoTKZipS5pUQgMipPFokajE8nhSRJmiSJiVEoSqqQSLpqHpg4JD0+Xs6deAeUwA9GXcrg5CTXA44dsdodKaJJegF0kdoOOIxi4jclaaS18xgqpdvx8eZ+Md2eaRRDhSqApJBqRShr/AF6ofIXeUfs7oIDMi6O4UzFefIR5Lkm+eEtTLQD9d8MZlwaloelSpUwImLJLJc3id29c9AQaQ42zLWkXVuWL+cW5KFfGElqul91exd0XvjR6GvKGc2VMvE3FB8glhjpgM6CkFZu5txtG65iCVRO7MlrUgrvFKUpwvKYZACudIYS74BRunJzMupf2sQS4wwyhyhbhylQbFweWelRCUrkwOPmTnRvpJMsRWEoStCjeKVEhlMzgh8QA4bKNl2XaDMky5hDFaEqYZOAYwwbJtCrObUJJ3DkX3D43b117xS9H/CNt2CGs8kaS0f8AiIiPbwjlqn9iQggginsErQKRUdvWIqekXJQhpPsgVAGXTdnqFGjvZclchJSmWCCoqPEcTdfI+r4xoStlDSOfJI0jlkx+Mqk1sUr9qm/dD3jo3qwKtUwv9mKv6Rzv+z7fhF18kjSDySNIZEOhrMl1KWu0zC/2eL+lrvPZ9vwgVaZhf7PF/S1v+z7fhF08kjSDySNIZEOgzJdSmftUx33eb+dzfSPE2hYb7PBvS03fL2PGLp5JGkHkkaQyIdBmSKUiesN9ng3pabvl7HjBvls1zJseQGnKLr5JGkHkkaRMiHQZkilKnKL8Bzz1Ez8/hAucok8Bq+eu8/P4RdfJA0jzyQNIZEOgzJFM36ne4rF/F45RMUG4TRvDd/k8YuvkgaQeSBpDIh0GZIpKFKoLpy8Agf6fGOp1mWtCksReSpPelY/1eEXUbJGkKJ2aNIZEOgzJGVTujat0EPUDFvwiavqfzTi/i8XpWyxpCfkgaRqVKMtyKTWxR0lQbhNG8N3+TxjxJUzXTgB4JH4RefJA0g8kDSM5EC5kijLvF+E5+IWP9cCiuvCc/ErP+vwi8+SBpB5IGkMiAzJFHdb+acR8Un/THiCoNwmjeG7/ACeMXnyQNIPJA0ieHh0LmyKM6ma6cG8GgWVF+E1fx3n5/CLz5IGkHkgaRciBMyRSCtT+acfxUfxgC1eqcvAo/LF38kDSDyQNIZEBmSKOhSw3Ccs9Ln5D3wFa28w4a8iPxi8eSBpB5IGkMiAzJFIUtZfgNXz13n5/COjNW/mHHXmo/jF18kDSDyQNIZEBmSKSJq/UOWfNHL2YRtMlcyWqXda8m676hA09k98XzyQNI9TskaRcmAzJFV2bs60mziy71IlCgBFWd2Kmch4vWzZRRLQk4pSkFsKBo4s9kCYeJEajBJ3MHsEEEbAQQQQAQQQQAQQQQAQQQQAQQQQAQQQQAQQQQAQQQQAQQQQAQQQQAQQQQAQQQQAQQQQAQQQQAQQQQAQQQQAQQQQAQQQQAQQQQAQQQQB//9k=;" parent="1" vertex="1">
          <mxGeometry x="80" y="60" width="470" height="244.82" as="geometry" />
        </mxCell>
        <mxCell id="oS1bjJ_bQjN-WQIwXAlt-6" style="edgeStyle=orthogonalEdgeStyle;rounded=0;orthogonalLoop=1;jettySize=auto;html=1;" parent="1" source="oS1bjJ_bQjN-WQIwXAlt-5" target="oS1bjJ_bQjN-WQIwXAlt-2" edge="1">
          <mxGeometry relative="1" as="geometry" />
        </mxCell>
        <mxCell id="oS1bjJ_bQjN-WQIwXAlt-5" value="Photograph nadhiHills" style="text;whiteSpace=wrap;" parent="1" vertex="1">
          <mxGeometry x="80" y="355" width="150" height="40" as="geometry" />
        </mxCell>
        <mxCell id="oS1bjJ_bQjN-WQIwXAlt-7" value="Subhatrha" style="shape=actor;whiteSpace=wrap;html=1;verticalAlign=bottom;" parent="1" vertex="1">
          <mxGeometry x="385" y="335" width="40" height="60" as="geometry" />
        </mxCell>
        <mxCell id="oS1bjJ_bQjN-WQIwXAlt-8" value="Philomath" style="shape=actor;whiteSpace=wrap;html=1;verticalAlign=bottom;" parent="1" vertex="1">
          <mxGeometry x="460" y="335" width="40" height="60" as="geometry" />
        </mxCell>
        <mxCell id="oS1bjJ_bQjN-WQIwXAlt-9" value="Brontosauraus" style="shape=actor;whiteSpace=wrap;html=1;verticalAlign=bottom;" parent="1" vertex="1">
          <mxGeometry x="540" y="335" width="40" height="60" as="geometry" />
        </mxCell>
        <mxCell id="oS1bjJ_bQjN-WQIwXAlt-11" value="&lt;div style=&quot;background-color:#1e1f22;color:#bcbec4&quot;&gt;&lt;pre style=&quot;font-family:&#39;JetBrains Mono&#39;,monospace;font-size:9.8pt;&quot;&gt;&lt;span style=&quot;color:#c77dbb;&quot;&gt;employeeName&lt;/span&gt;&lt;/pre&gt;&lt;/div&gt;" style="text;whiteSpace=wrap;html=1;" parent="1" vertex="1">
          <mxGeometry x="340" y="410" width="110" height="70" as="geometry" />
        </mxCell>
        <mxCell id="oS1bjJ_bQjN-WQIwXAlt-12" value="&lt;div style=&quot;background-color:#1e1f22;color:#bcbec4&quot;&gt;&lt;pre style=&quot;font-family:&#39;JetBrains Mono&#39;,monospace;font-size:9.8pt;&quot;&gt;&lt;span style=&quot;color:#c77dbb;&quot;&gt;employeeName&lt;/span&gt;&lt;/pre&gt;&lt;/div&gt;" style="text;whiteSpace=wrap;html=1;" parent="1" vertex="1">
          <mxGeometry x="440" y="410" width="120" height="70" as="geometry" />
        </mxCell>
        <mxCell id="oS1bjJ_bQjN-WQIwXAlt-13" value="&lt;div style=&quot;background-color:#1e1f22;color:#bcbec4&quot;&gt;&lt;pre style=&quot;font-family:&#39;JetBrains Mono&#39;,monospace;font-size:9.8pt;&quot;&gt;&lt;span style=&quot;color:#c77dbb;&quot;&gt;employeeName&lt;/span&gt;&lt;/pre&gt;&lt;/div&gt;" style="text;whiteSpace=wrap;html=1;" parent="1" vertex="1">
          <mxGeometry x="540" y="410" width="120" height="70" as="geometry" />
        </mxCell>
        <mxCell id="oS1bjJ_bQjN-WQIwXAlt-14" value="&lt;div style=&quot;background-color:#1e1f22;color:#bcbec4&quot;&gt;&lt;pre style=&quot;font-family:&#39;JetBrains Mono&#39;,monospace;font-size:9.8pt;&quot;&gt;&lt;span style=&quot;color:#c77dbb;font-style:italic;&quot;&gt;companyName&lt;/span&gt;&lt;/pre&gt;&lt;/div&gt;" style="text;whiteSpace=wrap;html=1;" parent="1" vertex="1">
          <mxGeometry x="440" y="470" width="110" height="70" as="geometry" />
        </mxCell>
        <mxCell id="foQ8LOdKZPQ7g9cpLDjd-1" value="com.shoppibuy&lt;div&gt;lab-core-java&lt;/div&gt;" style="rounded=1;whiteSpace=wrap;html=1;fillColor=#008a00;strokeColor=#005700;fontColor=#ffffff;" parent="1" vertex="1">
          <mxGeometry x="50" y="580" width="200" height="90" as="geometry" />
        </mxCell>
        <mxCell id="foQ8LOdKZPQ7g9cpLDjd-2" value="com.shoppibuy.products&lt;div&gt;cart&lt;/div&gt;&lt;div&gt;offers&lt;/div&gt;&lt;div&gt;orders&lt;/div&gt;&lt;div&gt;wishlist&lt;/div&gt;&lt;div&gt;payments&lt;/div&gt;&lt;div&gt;profile&lt;/div&gt;" style="rounded=1;whiteSpace=wrap;html=1;fillColor=#008a00;fontColor=#ffffff;strokeColor=#005700;" parent="1" vertex="1">
          <mxGeometry x="160" y="680" width="240" height="140" as="geometry" />
        </mxCell>
        <mxCell id="foQ8LOdKZPQ7g9cpLDjd-3" value="classes&lt;div&gt;attributes&lt;/div&gt;&lt;div&gt;methods&lt;/div&gt;" style="rounded=1;whiteSpace=wrap;html=1;fillColor=#008a00;fontColor=#ffffff;strokeColor=#005700;" parent="1" vertex="1">
          <mxGeometry x="420" y="680" width="150" height="90" as="geometry" />
        </mxCell>
        <mxCell id="foQ8LOdKZPQ7g9cpLDjd-4" value="Relationships" style="rounded=1;whiteSpace=wrap;html=1;fillColor=#1ba1e2;fontColor=#ffffff;strokeColor=#006EAF;" parent="1" vertex="1">
          <mxGeometry x="480" y="790" width="150" height="90" as="geometry" />
        </mxCell>
        <mxCell id="foQ8LOdKZPQ7g9cpLDjd-5" value="com.shoppibuy.App (main)&lt;div&gt;products&lt;div&gt;cart&lt;/div&gt;&lt;div&gt;offers&lt;/div&gt;&lt;div&gt;orders&lt;/div&gt;&lt;div&gt;wishlist&lt;/div&gt;&lt;div&gt;payments&lt;/div&gt;&lt;div&gt;profile&lt;/div&gt;&lt;/div&gt;" style="rounded=1;whiteSpace=wrap;html=1;fillColor=#008a00;fontColor=#ffffff;strokeColor=#005700;" parent="1" vertex="1">
          <mxGeometry x="160" y="860" width="240" height="140" as="geometry" />
        </mxCell>
        <mxCell id="foQ8LOdKZPQ7g9cpLDjd-6" value="Code : ShoppingCart" style="rounded=1;whiteSpace=wrap;html=1;fillColor=#1ba1e2;fontColor=#ffffff;strokeColor=#006EAF;" parent="1" vertex="1">
          <mxGeometry x="520" y="920" width="150" height="90" as="geometry" />
        </mxCell>
      </root>
    </mxGraphModel>
  </diagram>
  <diagram id="vFoZ3yJvKUL_lFYfbS8b" name="packages">
    <mxGraphModel dx="786" dy="596" grid="1" gridSize="10" guides="1" tooltips="1" connect="1" arrows="1" fold="1" page="1" pageScale="1" pageWidth="850" pageHeight="1100" math="0" shadow="0">
      <root>
        <mxCell id="0" />
        <mxCell id="1" parent="0" />
        <mxCell id="4TFOMjp6K-ukLNlqCfE1-1" value="public" style="rounded=0;whiteSpace=wrap;html=1;fillColor=#60a917;fontColor=#ffffff;strokeColor=#2D7600;" parent="1" vertex="1">
          <mxGeometry x="440" y="300" width="120" height="60" as="geometry" />
        </mxCell>
        <mxCell id="4TFOMjp6K-ukLNlqCfE1-29" value="" style="edgeStyle=orthogonalEdgeStyle;rounded=0;orthogonalLoop=1;jettySize=auto;html=1;" parent="1" source="4TFOMjp6K-ukLNlqCfE1-2" target="4TFOMjp6K-ukLNlqCfE1-28" edge="1">
          <mxGeometry relative="1" as="geometry" />
        </mxCell>
        <mxCell id="4TFOMjp6K-ukLNlqCfE1-2" value="private" style="rounded=0;whiteSpace=wrap;html=1;fillColor=#a20025;fontColor=#ffffff;strokeColor=#6F0000;" parent="1" vertex="1">
          <mxGeometry x="270" y="50" width="120" height="60" as="geometry" />
        </mxCell>
        <mxCell id="4TFOMjp6K-ukLNlqCfE1-33" value="" style="edgeStyle=orthogonalEdgeStyle;rounded=0;orthogonalLoop=1;jettySize=auto;html=1;" parent="1" source="4TFOMjp6K-ukLNlqCfE1-3" target="4TFOMjp6K-ukLNlqCfE1-32" edge="1">
          <mxGeometry relative="1" as="geometry" />
        </mxCell>
        <mxCell id="4TFOMjp6K-ukLNlqCfE1-3" value="protected" style="rounded=0;whiteSpace=wrap;html=1;fillColor=#e3c800;fontColor=#000000;strokeColor=#B09500;" parent="1" vertex="1">
          <mxGeometry x="380" y="220" width="120" height="60" as="geometry" />
        </mxCell>
        <mxCell id="4TFOMjp6K-ukLNlqCfE1-31" value="" style="edgeStyle=orthogonalEdgeStyle;rounded=0;orthogonalLoop=1;jettySize=auto;html=1;" parent="1" source="4TFOMjp6K-ukLNlqCfE1-4" target="4TFOMjp6K-ukLNlqCfE1-30" edge="1">
          <mxGeometry relative="1" as="geometry" />
        </mxCell>
        <mxCell id="4TFOMjp6K-ukLNlqCfE1-4" value="default (package-private)" style="rounded=0;whiteSpace=wrap;html=1;fillColor=#fa6800;fontColor=#000000;strokeColor=#C73500;" parent="1" vertex="1">
          <mxGeometry x="330" y="140" width="120" height="60" as="geometry" />
        </mxCell>
        <mxCell id="4TFOMjp6K-ukLNlqCfE1-5" value="default" style="rounded=0;whiteSpace=wrap;html=1;" parent="1" vertex="1">
          <mxGeometry x="80" y="320" width="120" height="60" as="geometry" />
        </mxCell>
        <mxCell id="4TFOMjp6K-ukLNlqCfE1-6" value="p1" style="rounded=1;whiteSpace=wrap;html=1;verticalAlign=bottom;" parent="1" vertex="1">
          <mxGeometry x="190" y="510" width="300" height="190" as="geometry" />
        </mxCell>
        <mxCell id="4TFOMjp6K-ukLNlqCfE1-7" value="p2" style="rounded=1;whiteSpace=wrap;html=1;verticalAlign=bottom;" parent="1" vertex="1">
          <mxGeometry x="540" y="500" width="300" height="190" as="geometry" />
        </mxCell>
        <mxCell id="4TFOMjp6K-ukLNlqCfE1-8" value="P1C1" style="rounded=0;whiteSpace=wrap;html=1;fillColor=#60a917;fontColor=#ffffff;strokeColor=#2D7600;" parent="1" vertex="1">
          <mxGeometry x="220" y="530" width="120" height="60" as="geometry" />
        </mxCell>
        <mxCell id="4TFOMjp6K-ukLNlqCfE1-9" value="P2C1" style="rounded=0;whiteSpace=wrap;html=1;fillColor=#60a917;fontColor=#ffffff;strokeColor=#2D7600;" parent="1" vertex="1">
          <mxGeometry x="580" y="540" width="120" height="60" as="geometry" />
        </mxCell>
        <mxCell id="4TFOMjp6K-ukLNlqCfE1-10" value="P1C2" style="rounded=0;whiteSpace=wrap;html=1;fillColor=#60a917;fontColor=#ffffff;strokeColor=#2D7600;" parent="1" vertex="1">
          <mxGeometry x="320" y="610" width="120" height="60" as="geometry" />
        </mxCell>
        <mxCell id="4TFOMjp6K-ukLNlqCfE1-11" value="P1C2" style="rounded=0;whiteSpace=wrap;html=1;fillColor=#60a917;fontColor=#ffffff;strokeColor=#2D7600;" parent="1" vertex="1">
          <mxGeometry x="350" y="790" width="120" height="60" as="geometry" />
        </mxCell>
        <mxCell id="4TFOMjp6K-ukLNlqCfE1-12" value="source code" style="shape=actor;whiteSpace=wrap;html=1;verticalAlign=bottom;" parent="1" vertex="1">
          <mxGeometry x="590" y="810" width="40" height="60" as="geometry" />
        </mxCell>
        <mxCell id="4TFOMjp6K-ukLNlqCfE1-13" value="*.java (source code)" style="rounded=1;whiteSpace=wrap;html=1;fillColor=#647687;fontColor=#ffffff;strokeColor=#314354;" parent="1" vertex="1">
          <mxGeometry x="550" y="890" width="120" height="60" as="geometry" />
        </mxCell>
        <mxCell id="4TFOMjp6K-ukLNlqCfE1-14" value="*.class (bytecode)" style="rounded=1;whiteSpace=wrap;html=1;fillColor=#6d8764;fontColor=#ffffff;strokeColor=#3A5431;" parent="1" vertex="1">
          <mxGeometry x="810" y="890" width="120" height="60" as="geometry" />
        </mxCell>
        <mxCell id="4TFOMjp6K-ukLNlqCfE1-15" value="source code" style="rounded=1;whiteSpace=wrap;html=1;fillColor=#6d8764;fontColor=#ffffff;strokeColor=#3A5431;" parent="1" vertex="1">
          <mxGeometry x="580" y="1270" width="120" height="60" as="geometry" />
        </mxCell>
        <mxCell id="4TFOMjp6K-ukLNlqCfE1-18" value="check syntax" style="rounded=1;whiteSpace=wrap;html=1;fillColor=#6d8764;fontColor=#ffffff;strokeColor=#3A5431;" parent="1" vertex="1">
          <mxGeometry x="540" y="990" width="120" height="60" as="geometry" />
        </mxCell>
        <mxCell id="4TFOMjp6K-ukLNlqCfE1-19" value="Dev Server" style="image;html=1;image=img/lib/clip_art/computers/Server_Rack_128x128.png" parent="1" vertex="1">
          <mxGeometry x="600" y="1155.56" width="80" height="80" as="geometry" />
        </mxCell>
        <mxCell id="4TFOMjp6K-ukLNlqCfE1-20" value="Dev Machine" style="image;aspect=fixed;perimeter=ellipsePerimeter;html=1;align=center;shadow=0;dashed=0;spacingTop=3;image=img/lib/active_directory/laptop_client.svg;" parent="1" vertex="1">
          <mxGeometry x="400" y="1140" width="100" height="111.11" as="geometry" />
        </mxCell>
        <mxCell id="4TFOMjp6K-ukLNlqCfE1-21" value="Testing Server" style="image;html=1;image=img/lib/clip_art/computers/Server_Rack_128x128.png" parent="1" vertex="1">
          <mxGeometry x="730" y="1155.56" width="80" height="80" as="geometry" />
        </mxCell>
        <mxCell id="4TFOMjp6K-ukLNlqCfE1-22" value="Staging Server" style="image;html=1;image=img/lib/clip_art/computers/Server_Rack_128x128.png" parent="1" vertex="1">
          <mxGeometry x="860" y="1155.56" width="80" height="80" as="geometry" />
        </mxCell>
        <mxCell id="4TFOMjp6K-ukLNlqCfE1-23" value="Production Server" style="image;html=1;image=img/lib/clip_art/computers/Server_Rack_128x128.png" parent="1" vertex="1">
          <mxGeometry x="1000" y="1150" width="80" height="80" as="geometry" />
        </mxCell>
        <mxCell id="4TFOMjp6K-ukLNlqCfE1-24" value="bytecode" style="rounded=1;whiteSpace=wrap;html=1;fillColor=#6d8764;fontColor=#ffffff;strokeColor=#3A5431;" parent="1" vertex="1">
          <mxGeometry x="990" y="1280" width="120" height="60" as="geometry" />
        </mxCell>
        <mxCell id="4TFOMjp6K-ukLNlqCfE1-25" value="compiler" style="rounded=1;whiteSpace=wrap;html=1;fillColor=#6d8764;fontColor=#ffffff;strokeColor=#3A5431;" parent="1" vertex="1">
          <mxGeometry x="620" y="1350" width="120" height="60" as="geometry" />
        </mxCell>
        <mxCell id="4TFOMjp6K-ukLNlqCfE1-26" value="jvm" style="rounded=1;whiteSpace=wrap;html=1;fillColor=#6d8764;fontColor=#ffffff;strokeColor=#3A5431;" parent="1" vertex="1">
          <mxGeometry x="990" y="1360" width="120" height="60" as="geometry" />
        </mxCell>
        <mxCell id="4TFOMjp6K-ukLNlqCfE1-27" value="private" style="rounded=1;whiteSpace=wrap;html=1;fillColor=#a0522d;fontColor=#ffffff;strokeColor=#6D1F00;" parent="1" vertex="1">
          <mxGeometry x="340" y="530" width="70" height="50" as="geometry" />
        </mxCell>
        <mxCell id="4TFOMjp6K-ukLNlqCfE1-28" value="only within the class it is declared" style="rounded=0;whiteSpace=wrap;html=1;fillColor=#a20025;fontColor=#ffffff;strokeColor=#6F0000;" parent="1" vertex="1">
          <mxGeometry x="470" y="50" width="120" height="60" as="geometry" />
        </mxCell>
        <mxCell id="4TFOMjp6K-ukLNlqCfE1-30" value="within the package" style="rounded=0;whiteSpace=wrap;html=1;fillColor=#fa6800;fontColor=#000000;strokeColor=#C73500;" parent="1" vertex="1">
          <mxGeometry x="530" y="140" width="120" height="60" as="geometry" />
        </mxCell>
        <mxCell id="4TFOMjp6K-ukLNlqCfE1-32" value="by all child classes + withing the package where it is declared." style="rounded=0;whiteSpace=wrap;html=1;fillColor=#e3c800;fontColor=#000000;strokeColor=#B09500;" parent="1" vertex="1">
          <mxGeometry x="580" y="220" width="120" height="60" as="geometry" />
        </mxCell>
        <mxCell id="9tLVe2l7Mtv3v1CyVkz2-1" value="On Prem" style="rounded=1;whiteSpace=wrap;html=1;" vertex="1" parent="1">
          <mxGeometry x="610" y="1080" width="440" height="60" as="geometry" />
        </mxCell>
      </root>
    </mxGraphModel>
  </diagram>
  <diagram id="2psS2x0ZiqAF1X2VDyYn" name="git">
    <mxGraphModel dx="925" dy="701" grid="1" gridSize="10" guides="1" tooltips="1" connect="1" arrows="1" fold="1" page="1" pageScale="1" pageWidth="850" pageHeight="1100" math="0" shadow="0">
      <root>
        <mxCell id="0" />
        <mxCell id="1" parent="0" />
        <mxCell id="drozKPVT8a-Wz1ksospc-10" value="" style="whiteSpace=wrap;html=1;aspect=fixed;fillColor=#d80073;fontColor=#ffffff;strokeColor=#A50040;" vertex="1" parent="1">
          <mxGeometry y="20" width="380" height="380" as="geometry" />
        </mxCell>
        <mxCell id="bHEFihQfzyoLDHc8aq8I-1" value="" style="rounded=0;whiteSpace=wrap;html=1;verticalAlign=bottom;" vertex="1" parent="1">
          <mxGeometry x="100" y="130" width="420" height="260" as="geometry" />
        </mxCell>
        <mxCell id="drozKPVT8a-Wz1ksospc-9" value="" style="whiteSpace=wrap;html=1;aspect=fixed;fillColor=#d80073;fontColor=#ffffff;strokeColor=#A50040;" vertex="1" parent="1">
          <mxGeometry x="555" y="30" width="370" height="370" as="geometry" />
        </mxCell>
        <mxCell id="bHEFihQfzyoLDHc8aq8I-2" value="MeetingSchedule" style="rounded=0;whiteSpace=wrap;html=1;" vertex="1" parent="1">
          <mxGeometry x="125" y="60" width="150" height="60" as="geometry" />
        </mxCell>
        <mxCell id="drozKPVT8a-Wz1ksospc-1" value="github.com" style="ellipse;whiteSpace=wrap;html=1;aspect=fixed;fillColor=#008a00;fontColor=#ffffff;strokeColor=#005700;fontSize=22;" vertex="1" parent="1">
          <mxGeometry x="20" y="40" width="140" height="140" as="geometry" />
        </mxCell>
        <mxCell id="bHEFihQfzyoLDHc8aq8I-3" value="Meeting" style="rounded=0;whiteSpace=wrap;html=1;" vertex="1" parent="1">
          <mxGeometry x="125" y="150" width="150" height="60" as="geometry" />
        </mxCell>
        <mxCell id="drozKPVT8a-Wz1ksospc-2" value="ASCBLR07JUL2025GIT-HUB" style="text;whiteSpace=wrap;html=1;" vertex="1" parent="1">
          <mxGeometry y="190" width="190" height="40" as="geometry" />
        </mxCell>
        <mxCell id="bHEFihQfzyoLDHc8aq8I-4" value="Employee" style="rounded=0;whiteSpace=wrap;html=1;" vertex="1" parent="1">
          <mxGeometry x="125" y="310" width="150" height="60" as="geometry" />
        </mxCell>
        <mxCell id="drozKPVT8a-Wz1ksospc-3" value="&lt;div style=&quot;color: rgb(204, 204, 204); background-color: rgb(31, 31, 31); font-family: Consolas, &amp;quot;Courier New&amp;quot;, monospace; font-size: 14px; line-height: 19px; white-space: pre;&quot;&gt;ASC01-AAYUSH-GIT-REPO&lt;/div&gt;" style="ellipse;whiteSpace=wrap;html=1;aspect=fixed;fillColor=#008a00;fontColor=#ffffff;strokeColor=#005700;fontSize=22;" vertex="1" parent="1">
          <mxGeometry x="195" y="70" width="180" height="180" as="geometry" />
        </mxCell>
        <mxCell id="bHEFihQfzyoLDHc8aq8I-5" value="App" style="rounded=0;whiteSpace=wrap;html=1;" vertex="1" parent="1">
          <mxGeometry x="360" y="400" width="150" height="60" as="geometry" />
        </mxCell>
        <mxCell id="drozKPVT8a-Wz1ksospc-4" value="Remote Repository" style="rounded=1;whiteSpace=wrap;html=1;" vertex="1" parent="1">
          <mxGeometry x="240" y="260" width="120" height="60" as="geometry" />
        </mxCell>
        <mxCell id="bHEFihQfzyoLDHc8aq8I-6" value="MeetingSchedule meetingSchedule[]" style="rounded=0;whiteSpace=wrap;html=1;" vertex="1" parent="1">
          <mxGeometry x="460" y="480" width="280" height="60" as="geometry" />
        </mxCell>
        <mxCell id="drozKPVT8a-Wz1ksospc-5" value="&lt;div style=&quot;color: rgb(204, 204, 204); background-color: rgb(31, 31, 31); font-family: Consolas, &amp;quot;Courier New&amp;quot;, monospace; font-size: 14px; line-height: 19px; white-space: pre;&quot;&gt;ASC01-AAYUSH-GIT-REPO&lt;/div&gt;" style="ellipse;whiteSpace=wrap;html=1;aspect=fixed;fillColor=#008a00;fontColor=#ffffff;strokeColor=#005700;fontSize=22;" vertex="1" parent="1">
          <mxGeometry x="650" y="80" width="180" height="180" as="geometry" />
        </mxCell>
        <mxCell id="bHEFihQfzyoLDHc8aq8I-7" value="ZoomMeeting" style="rounded=0;whiteSpace=wrap;html=1;" vertex="1" parent="1">
          <mxGeometry x="125" y="220" width="150" height="60" as="geometry" />
        </mxCell>
        <mxCell id="drozKPVT8a-Wz1ksospc-6" value="Local Repository" style="rounded=1;whiteSpace=wrap;html=1;" vertex="1" parent="1">
          <mxGeometry x="695" y="270" width="120" height="60" as="geometry" />
        </mxCell>
        <mxCell id="bHEFihQfzyoLDHc8aq8I-8" value="Meeting" style="rounded=0;whiteSpace=wrap;html=1;fillColor=#008a00;fontColor=#ffffff;strokeColor=#005700;" vertex="1" parent="1">
          <mxGeometry x="330" y="190" width="150" height="60" as="geometry" />
        </mxCell>
        <mxCell id="drozKPVT8a-Wz1ksospc-7" value="&lt;span style=&quot;color: rgb(255, 255, 255); font-family: Helvetica; font-style: normal; font-variant-ligatures: normal; font-variant-caps: normal; font-weight: 400; letter-spacing: normal; orphans: 2; text-align: left; text-indent: 0px; text-transform: none; widows: 2; word-spacing: 0px; -webkit-text-stroke-width: 0px; white-space: normal; background-color: rgb(27, 29, 30); text-decoration-thickness: initial; text-decoration-style: initial; text-decoration-color: initial; float: none; display: inline !important;&quot;&gt;ASCBLR07JUL2025GIT-HUB&lt;/span&gt;" style="text;whiteSpace=wrap;html=1;fontSize=15;" vertex="1" parent="1">
          <mxGeometry x="645" y="360" width="275" height="40" as="geometry" />
        </mxCell>
        <mxCell id="bHEFihQfzyoLDHc8aq8I-9" value="&amp;nbsp;Meeting meeting = null;&lt;div&gt;if(user chooses meeting )&lt;/div&gt;&lt;div&gt;meeting = new Meeting();&lt;/div&gt;&lt;div&gt;else&lt;br&gt;&lt;div&gt;meeting = new ZoomMeeting();&lt;/div&gt;&lt;/div&gt;" style="rounded=0;whiteSpace=wrap;html=1;fillColor=#008a00;fontColor=#ffffff;strokeColor=#005700;fontSize=16;" vertex="1" parent="1">
          <mxGeometry x="570" y="110" width="270" height="160" as="geometry" />
        </mxCell>
        <mxCell id="drozKPVT8a-Wz1ksospc-11" style="edgeStyle=orthogonalEdgeStyle;rounded=0;orthogonalLoop=1;jettySize=auto;html=1;entryX=0.375;entryY=0.333;entryDx=0;entryDy=0;entryPerimeter=0;" edge="1" parent="1" source="drozKPVT8a-Wz1ksospc-4" target="drozKPVT8a-Wz1ksospc-6">
          <mxGeometry relative="1" as="geometry" />
        </mxCell>
        <mxCell id="bHEFihQfzyoLDHc8aq8I-10" value="Dynamic Polymorphism" style="rounded=0;whiteSpace=wrap;html=1;fillColor=#008a00;fontColor=#ffffff;strokeColor=#005700;" vertex="1" parent="1">
          <mxGeometry x="680" y="320" width="180" height="80" as="geometry" />
        </mxCell>
      </root>
    </mxGraphModel>
  </diagram>
  <diagram id="gabYRvgGKxkIlqoIrwlb" name="Path and Classpath">
    <mxGraphModel dx="786" dy="596" grid="1" gridSize="10" guides="1" tooltips="1" connect="1" arrows="1" fold="1" page="1" pageScale="1" pageWidth="850" pageHeight="1100" math="0" shadow="0">
      <root>
        <mxCell id="0" />
        <mxCell id="1" parent="0" />
        <mxCell id="G1ecjiF-uYJY9jifff-7-4" value="" style="edgeStyle=orthogonalEdgeStyle;rounded=0;orthogonalLoop=1;jettySize=auto;html=1;" edge="1" parent="1" source="G1ecjiF-uYJY9jifff-7-1" target="G1ecjiF-uYJY9jifff-7-3">
          <mxGeometry relative="1" as="geometry" />
        </mxCell>
        <mxCell id="G1ecjiF-uYJY9jifff-7-1" value="executables" style="rounded=0;whiteSpace=wrap;html=1;" vertex="1" parent="1">
          <mxGeometry x="190" y="120" width="120" height="60" as="geometry" />
        </mxCell>
        <mxCell id="G1ecjiF-uYJY9jifff-7-6" value="" style="edgeStyle=orthogonalEdgeStyle;rounded=0;orthogonalLoop=1;jettySize=auto;html=1;" edge="1" parent="1" source="G1ecjiF-uYJY9jifff-7-2" target="G1ecjiF-uYJY9jifff-7-5">
          <mxGeometry relative="1" as="geometry" />
        </mxCell>
        <mxCell id="G1ecjiF-uYJY9jifff-7-2" value="libraries" style="rounded=0;whiteSpace=wrap;html=1;" vertex="1" parent="1">
          <mxGeometry x="365" y="120" width="120" height="60" as="geometry" />
        </mxCell>
        <mxCell id="G1ecjiF-uYJY9jifff-7-3" value="The applications which can run" style="rounded=0;whiteSpace=wrap;html=1;" vertex="1" parent="1">
          <mxGeometry x="190" y="210" width="120" height="60" as="geometry" />
        </mxCell>
        <mxCell id="G1ecjiF-uYJY9jifff-7-5" value="&lt;div&gt;mssql-jdbc-12.10.1.jre8.jar&lt;/div&gt;" style="rounded=0;whiteSpace=wrap;html=1;" vertex="1" parent="1">
          <mxGeometry x="365" y="210" width="120" height="60" as="geometry" />
        </mxCell>
        <mxCell id="G1ecjiF-uYJY9jifff-7-7" value="C:\Program Files\Java\jdk1.8.0_202\bin\java.exe" style="rounded=0;whiteSpace=wrap;html=1;" vertex="1" parent="1">
          <mxGeometry x="90" y="450" width="380" height="80" as="geometry" />
        </mxCell>
        <mxCell id="G1ecjiF-uYJY9jifff-7-14" value="" style="edgeStyle=orthogonalEdgeStyle;rounded=0;orthogonalLoop=1;jettySize=auto;html=1;" edge="1" parent="1" source="G1ecjiF-uYJY9jifff-7-8" target="G1ecjiF-uYJY9jifff-7-13">
          <mxGeometry relative="1" as="geometry" />
        </mxCell>
        <mxCell id="G1ecjiF-uYJY9jifff-7-8" value="C:\Users\Zyan&gt;java -version&#xa;java version &quot;1.8.0_202&quot;&#xa;Java(TM) SE Runtime Environment (build 1.8.0_202-b08)&#xa;Java HotSpot(TM) 64-Bit Server VM (build 25.202-b08, mixed mode)" style="text;whiteSpace=wrap;html=1;fillColor=#d80073;fontColor=#ffffff;strokeColor=#A50040;" vertex="1" parent="1">
          <mxGeometry x="80" y="540" width="400" height="80" as="geometry" />
        </mxCell>
        <mxCell id="G1ecjiF-uYJY9jifff-7-16" value="" style="edgeStyle=orthogonalEdgeStyle;rounded=0;orthogonalLoop=1;jettySize=auto;html=1;" edge="1" parent="1" source="G1ecjiF-uYJY9jifff-7-13" target="G1ecjiF-uYJY9jifff-7-15">
          <mxGeometry relative="1" as="geometry" />
        </mxCell>
        <mxCell id="G1ecjiF-uYJY9jifff-7-13" value="PATH" style="whiteSpace=wrap;html=1;align=left;verticalAlign=top;fillColor=#d80073;strokeColor=#A50040;fontColor=#ffffff;gradientColor=none;" vertex="1" parent="1">
          <mxGeometry x="540" y="550" width="120" height="60" as="geometry" />
        </mxCell>
        <mxCell id="G1ecjiF-uYJY9jifff-7-15" value="C:\Program Files\Java\jdk1.8.0_202\bin" style="whiteSpace=wrap;html=1;align=left;verticalAlign=top;fillColor=#d80073;strokeColor=#A50040;fontColor=#ffffff;gradientColor=none;" vertex="1" parent="1">
          <mxGeometry x="740" y="550" width="190" height="60" as="geometry" />
        </mxCell>
        <mxCell id="G1ecjiF-uYJY9jifff-7-19" value="" style="edgeStyle=orthogonalEdgeStyle;rounded=0;orthogonalLoop=1;jettySize=auto;html=1;" edge="1" parent="1" source="G1ecjiF-uYJY9jifff-7-17" target="G1ecjiF-uYJY9jifff-7-18">
          <mxGeometry relative="1" as="geometry" />
        </mxCell>
        <UserObject label="&lt;div style=&quot;background-color:#1e1f22;color:#bcbec4&quot;&gt;&lt;pre style=&quot;font-family:&#39;JetBrains Mono&#39;,monospace;font-size:9.8pt;&quot;&gt;&lt;span style=&quot;color:#6aab73;&quot;&gt;com.microsoft.sqlserver.jdbc.SQLServerDriver&lt;/span&gt;&lt;/pre&gt;&lt;/div&gt;" link="&lt;div style=&quot;background-color:#1e1f22;color:#bcbec4&quot;&gt;&lt;pre style=&quot;font-family:&#39;JetBrains Mono&#39;,monospace;font-size:9.8pt;&quot;&gt;&lt;span style=&quot;color:#6aab73;&quot;&gt;com.microsoft.sqlserver.jdbc.SQLServerDriver&lt;/span&gt;&lt;/pre&gt;&lt;/div&gt;" id="G1ecjiF-uYJY9jifff-7-17">
          <mxCell style="text;whiteSpace=wrap;html=1;" vertex="1" parent="1">
            <mxGeometry x="100" y="660" width="350" height="70" as="geometry" />
          </mxCell>
        </UserObject>
        <mxCell id="G1ecjiF-uYJY9jifff-7-18" value="CLASSPATH" style="whiteSpace=wrap;html=1;fillColor=#008a00;fontColor=#ffffff;strokeColor=#005700;" vertex="1" parent="1">
          <mxGeometry x="520" y="665" width="120" height="60" as="geometry" />
        </mxCell>
      </root>
    </mxGraphModel>
  </diagram>
</mxfile>
